# xmcd
#
# Track frame offsets:
#	150
#	11962
#	28802
#	42345
#	55032
#	66630
#	76940
#	88325
#	98812
#	117650
#	131775
#	143457
#	158960
#	172520
#
# Disc length: 2472 seconds
#
# Revision: 0
# Processed by: cddbd v1.5.2PL0 Copyright (c) Steve Scherf et al.
# Submitted via: EasyCDDAExtractor 9.1.3.1
#
DISCID=bf09a60e
DTITLE=Zilo and Zalo - BIS (Dois em um) - Vol. 02
DYEAR=2000
DGENRE=Country
TTITLE0=A marca da traição
TTITLE1=Parabéns Norte e Nordeste
TTITLE2=O silencio do seresteiro
TTITLE3=Arrependimento
TTITLE4=Quem ama, sabe
TTITLE5=A gaivota
TTITLE6=Espinho no coração
TTITLE7=Minha mulher amada
TTITLE8=O filho do ladrão
TTITLE9=Violão amigo
TTITLE10=O mesmo amigo
TTITLE11=Minha confissão
TTITLE12=A porteira
TTITLE13=Última serenata
EXTD=
EXTT0=
EXTT1=
EXTT2=
EXTT3=
EXTT4=
EXTT5=
EXTT6=
EXTT7=
EXTT8=
EXTT9=
EXTT10=
EXTT11=
EXTT12=
EXTT13=
PLAYORDER=
